<svg xmlns="http://www.w3.org/2000/svg" width="96" height="96" viewBox="0 0 96 96" role="img" aria-labelledby="title">
  <title>File GST</title>
  <circle cx="48" cy="48" r="34" fill="#f0f4f8"/>
  <rect x="29" y="55" width="38" height="17" rx="4" fill="#95a9bf" stroke="#1c2430" stroke-width="2"/>
  <circle cx="39" cy="60" r="2.2" fill="#1c2430"/>
  <circle cx="57" cy="60" r="2.2" fill="#1c2430"/>
  <rect x="36" y="30" width="24" height="24" rx="10" fill="#f3d8bf" stroke="#1c2430" stroke-width="2"/>
  <path d="M34 41c1-10 8-16 18-16 7 0 12 3 14 9-5-2-8-2-11 1-4 4-7 7-12 6-3-1-6-1-9 0z" fill="#b07845" stroke="#1c2430" stroke-width="2"/>
  <path d="M37 40h22" stroke="#1c2430" stroke-width="2"/>
  <rect x="39" y="44" width="6" height="5" rx="1" fill="#ffffff" stroke="#1c2430" stroke-width="1.7"/>
  <rect x="51" y="44" width="6" height="5" rx="1" fill="#ffffff" stroke="#1c2430" stroke-width="1.7"/>
  <path d="M45 46h6" stroke="#1c2430" stroke-width="1.5"/>
  <path d="M44 52c2 2 6 2 8 0" stroke="#1c2430" stroke-width="2" fill="none"/>
  <path d="M49 58l3 5" stroke="#1c2430" stroke-width="2"/>
</svg>
